<?xml version="1.0" encoding="utf-8" standalone="no"?>
<!DOCTYPE svg PUBLIC "-//W3C//DTD SVG 1.1//EN"
  "http://www.w3.org/Graphics/SVG/1.1/DTD/svg11.dtd">
<svg height="720pt" version="1.1" viewBox="0 0 576 720" width="576pt" xmlns="http://www.w3.org/2000/svg" xmlns:xlink="http://www.w3.org/1999/xlink">
 <metadata>
  <rdf:RDF xmlns:cc="http://creativecommons.org/ns#" xmlns:dc="http://purl.org/dc/elements/1.1/" xmlns:rdf="http://www.w3.org/1999/02/22-rdf-syntax-ns#">
   <cc:Work>
    <dc:type rdf:resource="http://purl.org/dc/dcmitype/StillImage"/>
    <dc:date>2021-09-26T16:58:45.836720</dc:date>
    <dc:format>image/svg+xml</dc:format>
    <dc:creator>
     <cc:Agent>
      <dc:title>Matplotlib v3.4.2, https://matplotlib.org/</dc:title>
     </cc:Agent>
    </dc:creator>
   </cc:Work>
  </rdf:RDF>
 </metadata>
 <defs>
  <style type="text/css">*{stroke-linecap:butt;stroke-linejoin:round;}</style>
 </defs>
 <g id="figure_1">
  <g id="patch_1">
   <path d="M 0 720 
L 576 720 
L 576 0 
L 0 0 
z
" style="fill:none;"/>
  </g>
  <g id="axes_1">
   <g id="patch_2">
    <path d="M 72 204.573913 
L 518.4 204.573913 
L 518.4 86.4 
L 72 86.4 
z
" style="fill:#ffffff;"/>
   </g>
   <g id="PolyCollection_1">
    <defs>
     <path d="M 72 -515.42726 
L 72 -515.426087 
L 76.509091 -515.426087 
L 81.018182 -515.426087 
L 85.527273 -515.426087 
L 90.036364 -515.426087 
L 94.545455 -515.426087 
L 99.054545 -515.426087 
L 103.563636 -515.426087 
L 108.072727 -515.426087 
L 112.581818 -515.426087 
L 117.090909 -515.426087 
L 121.6 -515.426087 
L 126.109091 -515.426087 
L 130.618182 -515.426087 
L 135.127273 -515.426087 
L 139.636364 -515.426087 
L 144.145455 -515.426087 
L 148.654545 -515.426087 
L 153.163636 -515.426087 
L 157.672727 -515.426087 
L 162.181818 -515.426087 
L 166.690909 -515.426087 
L 171.2 -515.426087 
L 175.709091 -515.426087 
L 180.218182 -515.426087 
L 184.727273 -515.426087 
L 189.236364 -515.426087 
L 193.745455 -515.426087 
L 198.254545 -515.426087 
L 202.763636 -515.426087 
L 207.272727 -515.426087 
L 211.781818 -515.426087 
L 216.290909 -515.426087 
L 220.8 -515.426087 
L 225.309091 -515.426087 
L 229.818182 -515.426087 
L 234.327273 -515.426087 
L 238.836364 -515.426087 
L 243.345455 -515.426087 
L 247.854545 -515.426087 
L 252.363636 -515.426087 
L 256.872727 -515.426087 
L 261.381818 -515.426087 
L 265.890909 -515.426087 
L 270.4 -515.426087 
L 274.909091 -515.426087 
L 279.418182 -515.426087 
L 283.927273 -515.426087 
L 288.436364 -515.426087 
L 292.945455 -515.426087 
L 297.454545 -515.426087 
L 301.963636 -515.426087 
L 306.472727 -515.426087 
L 310.981818 -515.426087 
L 315.490909 -515.426087 
L 320 -515.426087 
L 324.509091 -515.426087 
L 329.018182 -515.426087 
L 333.527273 -515.426087 
L 338.036364 -515.426087 
L 342.545455 -515.426087 
L 347.054545 -515.426087 
L 351.563636 -515.426087 
L 356.072727 -515.426087 
L 360.581818 -515.426087 
L 365.090909 -515.426087 
L 369.6 -515.426087 
L 374.109091 -515.426087 
L 378.618182 -515.426087 
L 383.127273 -515.426087 
L 387.636364 -515.426087 
L 392.145455 -515.426087 
L 396.654545 -515.426087 
L 401.163636 -515.426087 
L 405.672727 -515.426087 
L 410.181818 -515.426087 
L 414.690909 -515.426087 
L 419.2 -515.426087 
L 423.709091 -515.426087 
L 428.218182 -515.426087 
L 432.727273 -515.426087 
L 437.236364 -515.426087 
L 441.745455 -515.426087 
L 446.254545 -515.426087 
L 450.763636 -515.426087 
L 455.272727 -515.426087 
L 459.781818 -515.426087 
L 464.290909 -515.426087 
L 468.8 -515.426087 
L 473.309091 -515.426087 
L 477.818182 -515.426087 
L 482.327273 -515.426087 
L 486.836364 -515.426087 
L 491.345455 -515.426087 
L 495.854545 -515.426087 
L 500.363636 -515.426087 
L 504.872727 -515.426087 
L 509.381818 -515.426087 
L 513.890909 -515.426087 
L 518.4 -515.426087 
L 518.4 -515.426087 
L 518.4 -515.426087 
L 513.890909 -515.426087 
L 509.381818 -515.426087 
L 504.872727 -515.426087 
L 500.363636 -515.426087 
L 495.854545 -515.426087 
L 491.345455 -515.426087 
L 486.836364 -515.426087 
L 482.327273 -515.426087 
L 477.818182 -515.426087 
L 473.309091 -515.426087 
L 468.8 -515.426087 
L 464.290909 -515.426087 
L 459.781818 -515.426087 
L 455.272727 -515.426087 
L 450.763636 -515.426087 
L 446.254545 -515.426087 
L 441.745455 -515.426087 
L 437.236364 -515.426087 
L 432.727273 -515.426087 
L 428.218182 -515.426087 
L 423.709091 -515.426087 
L 419.2 -515.426087 
L 414.690909 -515.426087 
L 410.181818 -515.426087 
L 405.672727 -515.426087 
L 401.163636 -515.426087 
L 396.654545 -515.426087 
L 392.145455 -515.426087 
L 387.636364 -515.426087 
L 383.127273 -515.426087 
L 378.618182 -515.426087 
L 374.109091 -515.426087 
L 369.6 -515.426087 
L 365.090909 -515.426087 
L 360.581818 -515.426087 
L 356.072727 -515.426087 
L 351.563636 -515.426087 
L 347.054545 -515.426087 
L 342.545455 -515.426087 
L 338.036364 -515.426087 
L 333.527273 -515.426087 
L 329.018182 -515.426087 
L 324.509091 -515.426087 
L 320 -515.426087 
L 315.490909 -515.426089 
L 310.981818 -515.426093 
L 306.472727 -515.426105 
L 301.963636 -515.426142 
L 297.454545 -515.426246 
L 292.945455 -515.426527 
L 288.436364 -515.42726 
L 283.927273 -515.429091 
L 279.418182 -515.433475 
L 274.909091 -515.443547 
L 270.4 -515.46573 
L 265.890909 -515.512567 
L 261.381818 -515.607343 
L 256.872727 -515.791093 
L 252.363636 -516.132297 
L 247.854545 -516.738881 
L 243.345455 -517.770787 
L 238.836364 -519.449608 
L 234.327273 -522.059753 
L 229.818182 -525.934304 
L 225.309091 -531.419187 
L 220.8 -538.812551 
L 216.290909 -548.282844 
L 211.781818 -559.778069 
L 207.272727 -572.947508 
L 202.763636 -587.102189 
L 198.254545 -601.237958 
L 193.745455 -614.133238 
L 189.236364 -624.514355 
L 184.727273 -631.260001 
L 180.218182 -633.6 
L 175.709091 -631.260001 
L 171.2 -624.514355 
L 166.690909 -614.133238 
L 162.181818 -601.237958 
L 157.672727 -587.102189 
L 153.163636 -572.947508 
L 148.654545 -559.778069 
L 144.145455 -548.282844 
L 139.636364 -538.812551 
L 135.127273 -531.419187 
L 130.618182 -525.934304 
L 126.109091 -522.059753 
L 121.6 -519.449608 
L 117.090909 -517.770787 
L 112.581818 -516.738881 
L 108.072727 -516.132297 
L 103.563636 -515.791093 
L 99.054545 -515.607343 
L 94.545455 -515.512567 
L 90.036364 -515.46573 
L 85.527273 -515.443547 
L 81.018182 -515.433475 
L 76.509091 -515.429091 
L 72 -515.42726 
z
" id="mdaaf792e6e" style="stroke:#0000ff;stroke-opacity:0.4;"/>
    </defs>
    <g clip-path="url(#pd2f8543bc5)">
     <use style="fill:#0000ff;fill-opacity:0.4;stroke:#0000ff;stroke-opacity:0.4;" x="0" xlink:href="#mdaaf792e6e" y="720"/>
    </g>
   </g>
   <g id="matplotlib.axis_1">
    <g id="xtick_1">
     <g id="line2d_1">
      <path clip-path="url(#pd2f8543bc5)" d="M 180.218182 204.573913 
L 180.218182 86.4 
" style="fill:none;stroke:#b0b0b0;stroke-linecap:square;stroke-width:0.8;"/>
     </g>
     <g id="line2d_2">
      <defs>
       <path d="M 0 0 
L 0 3.5 
" id="mdb4e575f48" style="stroke:#000000;stroke-width:0.8;"/>
      </defs>
      <g>
       <use style="stroke:#000000;stroke-width:0.8;" x="180.218182" xlink:href="#mdb4e575f48" y="204.573913"/>
      </g>
     </g>
    </g>
    <g id="xtick_2">
     <g id="line2d_3">
      <path clip-path="url(#pd2f8543bc5)" d="M 292.945455 204.573913 
L 292.945455 86.4 
" style="fill:none;stroke:#b0b0b0;stroke-linecap:square;stroke-width:0.8;"/>
     </g>
     <g id="line2d_4">
      <g>
       <use style="stroke:#000000;stroke-width:0.8;" x="292.945455" xlink:href="#mdb4e575f48" y="204.573913"/>
      </g>
     </g>
    </g>
    <g id="xtick_3">
     <g id="line2d_5">
      <path clip-path="url(#pd2f8543bc5)" d="M 405.672727 204.573913 
L 405.672727 86.4 
" style="fill:none;stroke:#b0b0b0;stroke-linecap:square;stroke-width:0.8;"/>
     </g>
     <g id="line2d_6">
      <g>
       <use style="stroke:#000000;stroke-width:0.8;" x="405.672727" xlink:href="#mdb4e575f48" y="204.573913"/>
      </g>
     </g>
    </g>
    <g id="xtick_4">
     <g id="line2d_7">
      <path clip-path="url(#pd2f8543bc5)" d="M 518.4 204.573913 
L 518.4 86.4 
" style="fill:none;stroke:#b0b0b0;stroke-linecap:square;stroke-width:0.8;"/>
     </g>
     <g id="line2d_8">
      <g>
       <use style="stroke:#000000;stroke-width:0.8;" x="518.4" xlink:href="#mdb4e575f48" y="204.573913"/>
      </g>
     </g>
    </g>
   </g>
   <g id="matplotlib.axis_2">
    <g id="ytick_1">
     <g id="line2d_9">
      <path clip-path="url(#pd2f8543bc5)" d="M 72 204.573913 
L 518.4 204.573913 
" style="fill:none;stroke:#b0b0b0;stroke-linecap:square;stroke-width:0.8;"/>
     </g>
     <g id="line2d_10">
      <defs>
       <path d="M 0 0 
L -3.5 0 
" id="m7e0252fe74" style="stroke:#000000;stroke-width:0.8;"/>
      </defs>
      <g>
       <use style="stroke:#000000;stroke-width:0.8;" x="72" xlink:href="#m7e0252fe74" y="204.573913"/>
      </g>
     </g>
     <g id="text_1">
      <!-- 0.00 -->
      <g transform="translate(42.734375 208.373132)scale(0.1 -0.1)">
       <defs>
        <path d="M 2034 4250 
Q 1547 4250 1301 3770 
Q 1056 3291 1056 2328 
Q 1056 1369 1301 889 
Q 1547 409 2034 409 
Q 2525 409 2770 889 
Q 3016 1369 3016 2328 
Q 3016 3291 2770 3770 
Q 2525 4250 2034 4250 
z
M 2034 4750 
Q 2819 4750 3233 4129 
Q 3647 3509 3647 2328 
Q 3647 1150 3233 529 
Q 2819 -91 2034 -91 
Q 1250 -91 836 529 
Q 422 1150 422 2328 
Q 422 3509 836 4129 
Q 1250 4750 2034 4750 
z
" id="DejaVuSans-30" transform="scale(0.015625)"/>
        <path d="M 684 794 
L 1344 794 
L 1344 0 
L 684 0 
L 684 794 
z
" id="DejaVuSans-2e" transform="scale(0.015625)"/>
       </defs>
       <use xlink:href="#DejaVuSans-30"/>
       <use x="63.623047" xlink:href="#DejaVuSans-2e"/>
       <use x="95.410156" xlink:href="#DejaVuSans-30"/>
       <use x="159.033203" xlink:href="#DejaVuSans-30"/>
      </g>
     </g>
    </g>
    <g id="ytick_2">
     <g id="line2d_11">
      <path clip-path="url(#pd2f8543bc5)" d="M 72 175.030435 
L 518.4 175.030435 
" style="fill:none;stroke:#b0b0b0;stroke-linecap:square;stroke-width:0.8;"/>
     </g>
     <g id="line2d_12">
      <g>
       <use style="stroke:#000000;stroke-width:0.8;" x="72" xlink:href="#m7e0252fe74" y="175.030435"/>
      </g>
     </g>
     <g id="text_2">
      <!-- 0.25 -->
      <g transform="translate(42.734375 178.829654)scale(0.1 -0.1)">
       <defs>
        <path d="M 1228 531 
L 3431 531 
L 3431 0 
L 469 0 
L 469 531 
Q 828 903 1448 1529 
Q 2069 2156 2228 2338 
Q 2531 2678 2651 2914 
Q 2772 3150 2772 3378 
Q 2772 3750 2511 3984 
Q 2250 4219 1831 4219 
Q 1534 4219 1204 4116 
Q 875 4013 500 3803 
L 500 4441 
Q 881 4594 1212 4672 
Q 1544 4750 1819 4750 
Q 2544 4750 2975 4387 
Q 3406 4025 3406 3419 
Q 3406 3131 3298 2873 
Q 3191 2616 2906 2266 
Q 2828 2175 2409 1742 
Q 1991 1309 1228 531 
z
" id="DejaVuSans-32" transform="scale(0.015625)"/>
        <path d="M 691 4666 
L 3169 4666 
L 3169 4134 
L 1269 4134 
L 1269 2991 
Q 1406 3038 1543 3061 
Q 1681 3084 1819 3084 
Q 2600 3084 3056 2656 
Q 3513 2228 3513 1497 
Q 3513 744 3044 326 
Q 2575 -91 1722 -91 
Q 1428 -91 1123 -41 
Q 819 9 494 109 
L 494 744 
Q 775 591 1075 516 
Q 1375 441 1709 441 
Q 2250 441 2565 725 
Q 2881 1009 2881 1497 
Q 2881 1984 2565 2268 
Q 2250 2553 1709 2553 
Q 1456 2553 1204 2497 
Q 953 2441 691 2322 
L 691 4666 
z
" id="DejaVuSans-35" transform="scale(0.015625)"/>
       </defs>
       <use xlink:href="#DejaVuSans-30"/>
       <use x="63.623047" xlink:href="#DejaVuSans-2e"/>
       <use x="95.410156" xlink:href="#DejaVuSans-32"/>
       <use x="159.033203" xlink:href="#DejaVuSans-35"/>
      </g>
     </g>
    </g>
    <g id="ytick_3">
     <g id="line2d_13">
      <path clip-path="url(#pd2f8543bc5)" d="M 72 145.486957 
L 518.4 145.486957 
" style="fill:none;stroke:#b0b0b0;stroke-linecap:square;stroke-width:0.8;"/>
     </g>
     <g id="line2d_14">
      <g>
       <use style="stroke:#000000;stroke-width:0.8;" x="72" xlink:href="#m7e0252fe74" y="145.486957"/>
      </g>
     </g>
     <g id="text_3">
      <!-- 0.50 -->
      <g transform="translate(42.734375 149.286175)scale(0.1 -0.1)">
       <use xlink:href="#DejaVuSans-30"/>
       <use x="63.623047" xlink:href="#DejaVuSans-2e"/>
       <use x="95.410156" xlink:href="#DejaVuSans-35"/>
       <use x="159.033203" xlink:href="#DejaVuSans-30"/>
      </g>
     </g>
    </g>
    <g id="ytick_4">
     <g id="line2d_15">
      <path clip-path="url(#pd2f8543bc5)" d="M 72 115.943478 
L 518.4 115.943478 
" style="fill:none;stroke:#b0b0b0;stroke-linecap:square;stroke-width:0.8;"/>
     </g>
     <g id="line2d_16">
      <g>
       <use style="stroke:#000000;stroke-width:0.8;" x="72" xlink:href="#m7e0252fe74" y="115.943478"/>
      </g>
     </g>
     <g id="text_4">
      <!-- 0.75 -->
      <g transform="translate(42.734375 119.742697)scale(0.1 -0.1)">
       <defs>
        <path d="M 525 4666 
L 3525 4666 
L 3525 4397 
L 1831 0 
L 1172 0 
L 2766 4134 
L 525 4134 
L 525 4666 
z
" id="DejaVuSans-37" transform="scale(0.015625)"/>
       </defs>
       <use xlink:href="#DejaVuSans-30"/>
       <use x="63.623047" xlink:href="#DejaVuSans-2e"/>
       <use x="95.410156" xlink:href="#DejaVuSans-37"/>
       <use x="159.033203" xlink:href="#DejaVuSans-35"/>
      </g>
     </g>
    </g>
    <g id="ytick_5">
     <g id="line2d_17">
      <path clip-path="url(#pd2f8543bc5)" d="M 72 86.4 
L 518.4 86.4 
" style="fill:none;stroke:#b0b0b0;stroke-linecap:square;stroke-width:0.8;"/>
     </g>
     <g id="line2d_18">
      <g>
       <use style="stroke:#000000;stroke-width:0.8;" x="72" xlink:href="#m7e0252fe74" y="86.4"/>
      </g>
     </g>
     <g id="text_5">
      <!-- 1.00 -->
      <g transform="translate(42.734375 90.199219)scale(0.1 -0.1)">
       <defs>
        <path d="M 794 531 
L 1825 531 
L 1825 4091 
L 703 3866 
L 703 4441 
L 1819 4666 
L 2450 4666 
L 2450 531 
L 3481 531 
L 3481 0 
L 794 0 
L 794 531 
z
" id="DejaVuSans-31" transform="scale(0.015625)"/>
       </defs>
       <use xlink:href="#DejaVuSans-31"/>
       <use x="63.623047" xlink:href="#DejaVuSans-2e"/>
       <use x="95.410156" xlink:href="#DejaVuSans-30"/>
       <use x="159.033203" xlink:href="#DejaVuSans-30"/>
      </g>
     </g>
    </g>
    <g id="text_6">
     <!-- Height -->
     <g transform="translate(35.406875 171.933207)rotate(-90)scale(0.16 -0.16)">
      <defs>
       <path d="M 628 4666 
L 1259 4666 
L 1259 2753 
L 3553 2753 
L 3553 4666 
L 4184 4666 
L 4184 0 
L 3553 0 
L 3553 2222 
L 1259 2222 
L 1259 0 
L 628 0 
L 628 4666 
z
" id="DejaVuSans-48" transform="scale(0.015625)"/>
       <path d="M 3597 1894 
L 3597 1613 
L 953 1613 
Q 991 1019 1311 708 
Q 1631 397 2203 397 
Q 2534 397 2845 478 
Q 3156 559 3463 722 
L 3463 178 
Q 3153 47 2828 -22 
Q 2503 -91 2169 -91 
Q 1331 -91 842 396 
Q 353 884 353 1716 
Q 353 2575 817 3079 
Q 1281 3584 2069 3584 
Q 2775 3584 3186 3129 
Q 3597 2675 3597 1894 
z
M 3022 2063 
Q 3016 2534 2758 2815 
Q 2500 3097 2075 3097 
Q 1594 3097 1305 2825 
Q 1016 2553 972 2059 
L 3022 2063 
z
" id="DejaVuSans-65" transform="scale(0.015625)"/>
       <path d="M 603 3500 
L 1178 3500 
L 1178 0 
L 603 0 
L 603 3500 
z
M 603 4863 
L 1178 4863 
L 1178 4134 
L 603 4134 
L 603 4863 
z
" id="DejaVuSans-69" transform="scale(0.015625)"/>
       <path d="M 2906 1791 
Q 2906 2416 2648 2759 
Q 2391 3103 1925 3103 
Q 1463 3103 1205 2759 
Q 947 2416 947 1791 
Q 947 1169 1205 825 
Q 1463 481 1925 481 
Q 2391 481 2648 825 
Q 2906 1169 2906 1791 
z
M 3481 434 
Q 3481 -459 3084 -895 
Q 2688 -1331 1869 -1331 
Q 1566 -1331 1297 -1286 
Q 1028 -1241 775 -1147 
L 775 -588 
Q 1028 -725 1275 -790 
Q 1522 -856 1778 -856 
Q 2344 -856 2625 -561 
Q 2906 -266 2906 331 
L 2906 616 
Q 2728 306 2450 153 
Q 2172 0 1784 0 
Q 1141 0 747 490 
Q 353 981 353 1791 
Q 353 2603 747 3093 
Q 1141 3584 1784 3584 
Q 2172 3584 2450 3431 
Q 2728 3278 2906 2969 
L 2906 3500 
L 3481 3500 
L 3481 434 
z
" id="DejaVuSans-67" transform="scale(0.015625)"/>
       <path d="M 3513 2113 
L 3513 0 
L 2938 0 
L 2938 2094 
Q 2938 2591 2744 2837 
Q 2550 3084 2163 3084 
Q 1697 3084 1428 2787 
Q 1159 2491 1159 1978 
L 1159 0 
L 581 0 
L 581 4863 
L 1159 4863 
L 1159 2956 
Q 1366 3272 1645 3428 
Q 1925 3584 2291 3584 
Q 2894 3584 3203 3211 
Q 3513 2838 3513 2113 
z
" id="DejaVuSans-68" transform="scale(0.015625)"/>
       <path d="M 1172 4494 
L 1172 3500 
L 2356 3500 
L 2356 3053 
L 1172 3053 
L 1172 1153 
Q 1172 725 1289 603 
Q 1406 481 1766 481 
L 2356 481 
L 2356 0 
L 1766 0 
Q 1100 0 847 248 
Q 594 497 594 1153 
L 594 3053 
L 172 3053 
L 172 3500 
L 594 3500 
L 594 4494 
L 1172 4494 
z
" id="DejaVuSans-74" transform="scale(0.015625)"/>
      </defs>
      <use xlink:href="#DejaVuSans-48"/>
      <use x="75.195312" xlink:href="#DejaVuSans-65"/>
      <use x="136.71875" xlink:href="#DejaVuSans-69"/>
      <use x="164.501953" xlink:href="#DejaVuSans-67"/>
      <use x="227.978516" xlink:href="#DejaVuSans-68"/>
      <use x="291.357422" xlink:href="#DejaVuSans-74"/>
     </g>
    </g>
   </g>
   <g id="line2d_19">
    <path clip-path="url(#pd2f8543bc5)" d="M 72 204.57274 
L 76.509091 204.570909 
L 81.018182 204.566525 
L 85.527273 204.556453 
L 90.036364 204.53427 
L 94.545455 204.487433 
L 99.054545 204.392657 
L 103.563636 204.208907 
L 108.072727 203.867703 
L 112.581818 203.261119 
L 117.090909 202.229213 
L 121.6 200.550392 
L 126.109091 197.940247 
L 130.618182 194.065696 
L 135.127273 188.580813 
L 139.636364 181.187449 
L 144.145455 171.717156 
L 148.654545 160.221931 
L 153.163636 147.052492 
L 157.672727 132.897811 
L 162.181818 118.762042 
L 166.690909 105.866762 
L 171.2 95.485645 
L 175.709091 88.739999 
L 180.218182 86.4 
L 184.727273 88.739999 
L 189.236364 95.485645 
L 193.745455 105.866762 
L 198.254545 118.762042 
L 202.763636 132.897811 
L 207.272727 147.052492 
L 211.781818 160.221931 
L 216.290909 171.717156 
L 220.8 181.187449 
L 225.309091 188.580813 
L 229.818182 194.065696 
L 234.327273 197.940247 
L 238.836364 200.550392 
L 243.345455 202.229213 
L 247.854545 203.261119 
L 252.363636 203.867703 
L 256.872727 204.208907 
L 261.381818 204.392657 
L 265.890909 204.487433 
L 270.4 204.53427 
L 274.909091 204.556453 
L 279.418182 204.566525 
L 283.927273 204.570909 
L 288.436364 204.57274 
L 292.945455 204.573473 
L 297.454545 204.573754 
L 301.963636 204.573858 
L 306.472727 204.573895 
L 310.981818 204.573907 
L 315.490909 204.573911 
L 320 204.573913 
L 324.509091 204.573913 
L 329.018182 204.573913 
L 333.527273 204.573913 
L 338.036364 204.573913 
L 342.545455 204.573913 
L 347.054545 204.573913 
L 351.563636 204.573913 
L 356.072727 204.573913 
L 360.581818 204.573913 
L 365.090909 204.573913 
L 369.6 204.573913 
L 374.109091 204.573913 
L 378.618182 204.573913 
L 383.127273 204.573913 
L 387.636364 204.573913 
L 392.145455 204.573913 
L 396.654545 204.573913 
L 401.163636 204.573913 
L 405.672727 204.573913 
L 410.181818 204.573913 
L 414.690909 204.573913 
L 419.2 204.573913 
L 423.709091 204.573913 
L 428.218182 204.573913 
L 432.727273 204.573913 
L 437.236364 204.573913 
L 441.745455 204.573913 
L 446.254545 204.573913 
L 450.763636 204.573913 
L 455.272727 204.573913 
L 459.781818 204.573913 
L 464.290909 204.573913 
L 468.8 204.573913 
L 473.309091 204.573913 
L 477.818182 204.573913 
L 482.327273 204.573913 
L 486.836364 204.573913 
L 491.345455 204.573913 
L 495.854545 204.573913 
L 500.363636 204.573913 
L 504.872727 204.573913 
L 509.381818 204.573913 
L 513.890909 204.573913 
L 518.4 204.573913 
" style="fill:none;stroke:#0000ff;stroke-linecap:square;stroke-width:1.5;"/>
   </g>
   <g id="patch_3">
    <path d="M 72 204.573913 
L 72 86.4 
" style="fill:none;stroke:#000000;stroke-linecap:square;stroke-linejoin:miter;stroke-width:0.8;"/>
   </g>
   <g id="patch_4">
    <path d="M 518.4 204.573913 
L 518.4 86.4 
" style="fill:none;stroke:#000000;stroke-linecap:square;stroke-linejoin:miter;stroke-width:0.8;"/>
   </g>
   <g id="patch_5">
    <path d="M 72 204.573913 
L 518.4 204.573913 
" style="fill:none;stroke:#000000;stroke-linecap:square;stroke-linejoin:miter;stroke-width:0.8;"/>
   </g>
   <g id="patch_6">
    <path d="M 72 86.4 
L 518.4 86.4 
" style="fill:none;stroke:#000000;stroke-linecap:square;stroke-linejoin:miter;stroke-width:0.8;"/>
   </g>
   <g id="text_7">
    <!-- Time step   0 -->
    <g transform="translate(256.095937 80.4)scale(0.12 -0.12)">
     <defs>
      <path d="M -19 4666 
L 3928 4666 
L 3928 4134 
L 2272 4134 
L 2272 0 
L 1638 0 
L 1638 4134 
L -19 4134 
L -19 4666 
z
" id="DejaVuSans-54" transform="scale(0.015625)"/>
      <path d="M 3328 2828 
Q 3544 3216 3844 3400 
Q 4144 3584 4550 3584 
Q 5097 3584 5394 3201 
Q 5691 2819 5691 2113 
L 5691 0 
L 5113 0 
L 5113 2094 
Q 5113 2597 4934 2840 
Q 4756 3084 4391 3084 
Q 3944 3084 3684 2787 
Q 3425 2491 3425 1978 
L 3425 0 
L 2847 0 
L 2847 2094 
Q 2847 2600 2669 2842 
Q 2491 3084 2119 3084 
Q 1678 3084 1418 2786 
Q 1159 2488 1159 1978 
L 1159 0 
L 581 0 
L 581 3500 
L 1159 3500 
L 1159 2956 
Q 1356 3278 1631 3431 
Q 1906 3584 2284 3584 
Q 2666 3584 2933 3390 
Q 3200 3197 3328 2828 
z
" id="DejaVuSans-6d" transform="scale(0.015625)"/>
      <path id="DejaVuSans-20" transform="scale(0.015625)"/>
      <path d="M 2834 3397 
L 2834 2853 
Q 2591 2978 2328 3040 
Q 2066 3103 1784 3103 
Q 1356 3103 1142 2972 
Q 928 2841 928 2578 
Q 928 2378 1081 2264 
Q 1234 2150 1697 2047 
L 1894 2003 
Q 2506 1872 2764 1633 
Q 3022 1394 3022 966 
Q 3022 478 2636 193 
Q 2250 -91 1575 -91 
Q 1294 -91 989 -36 
Q 684 19 347 128 
L 347 722 
Q 666 556 975 473 
Q 1284 391 1588 391 
Q 1994 391 2212 530 
Q 2431 669 2431 922 
Q 2431 1156 2273 1281 
Q 2116 1406 1581 1522 
L 1381 1569 
Q 847 1681 609 1914 
Q 372 2147 372 2553 
Q 372 3047 722 3315 
Q 1072 3584 1716 3584 
Q 2034 3584 2315 3537 
Q 2597 3491 2834 3397 
z
" id="DejaVuSans-73" transform="scale(0.015625)"/>
      <path d="M 1159 525 
L 1159 -1331 
L 581 -1331 
L 581 3500 
L 1159 3500 
L 1159 2969 
Q 1341 3281 1617 3432 
Q 1894 3584 2278 3584 
Q 2916 3584 3314 3078 
Q 3713 2572 3713 1747 
Q 3713 922 3314 415 
Q 2916 -91 2278 -91 
Q 1894 -91 1617 61 
Q 1341 213 1159 525 
z
M 3116 1747 
Q 3116 2381 2855 2742 
Q 2594 3103 2138 3103 
Q 1681 3103 1420 2742 
Q 1159 2381 1159 1747 
Q 1159 1113 1420 752 
Q 1681 391 2138 391 
Q 2594 391 2855 752 
Q 3116 1113 3116 1747 
z
" id="DejaVuSans-70" transform="scale(0.015625)"/>
     </defs>
     <use xlink:href="#DejaVuSans-54"/>
     <use x="57.958984" xlink:href="#DejaVuSans-69"/>
     <use x="85.742188" xlink:href="#DejaVuSans-6d"/>
     <use x="183.154297" xlink:href="#DejaVuSans-65"/>
     <use x="244.677734" xlink:href="#DejaVuSans-20"/>
     <use x="276.464844" xlink:href="#DejaVuSans-73"/>
     <use x="328.564453" xlink:href="#DejaVuSans-74"/>
     <use x="367.773438" xlink:href="#DejaVuSans-65"/>
     <use x="429.296875" xlink:href="#DejaVuSans-70"/>
     <use x="492.773438" xlink:href="#DejaVuSans-20"/>
     <use x="524.560547" xlink:href="#DejaVuSans-20"/>
     <use x="556.347656" xlink:href="#DejaVuSans-20"/>
     <use x="588.134766" xlink:href="#DejaVuSans-30"/>
    </g>
   </g>
  </g>
  <g id="axes_2">
   <g id="patch_7">
    <path d="M 72 346.382609 
L 518.4 346.382609 
L 518.4 228.208696 
L 72 228.208696 
z
" style="fill:#ffffff;"/>
   </g>
   <g id="PolyCollection_2">
    <defs>
     <path d="M 72 -373.617391 
L 72 -373.617391 
L 76.509091 -373.617391 
L 81.018182 -373.617391 
L 85.527273 -373.617391 
L 90.036364 -373.617391 
L 94.545455 -373.617391 
L 99.054545 -373.617391 
L 103.563636 -373.617391 
L 108.072727 -373.617391 
L 112.581818 -373.617391 
L 117.090909 -373.617391 
L 121.6 -373.617391 
L 126.109091 -373.617391 
L 130.618182 -373.617391 
L 135.127273 -373.617391 
L 139.636364 -373.617391 
L 144.145455 -373.617391 
L 148.654545 -373.617391 
L 153.163636 -373.617391 
L 157.672727 -373.617391 
L 162.181818 -373.617391 
L 166.690909 -373.617391 
L 171.2 -373.617391 
L 175.709091 -373.617391 
L 180.218182 -373.617391 
L 184.727273 -373.617391 
L 189.236364 -373.617391 
L 193.745455 -373.617391 
L 198.254545 -373.617391 
L 202.763636 -373.617391 
L 207.272727 -373.617391 
L 211.781818 -373.617391 
L 216.290909 -373.617391 
L 220.8 -373.617391 
L 225.309091 -373.617391 
L 229.818182 -373.617391 
L 234.327273 -373.617391 
L 238.836364 -373.617391 
L 243.345455 -373.617391 
L 247.854545 -373.617391 
L 252.363636 -373.617391 
L 256.872727 -373.617391 
L 261.381818 -373.617391 
L 265.890909 -373.617391 
L 270.4 -373.617391 
L 274.909091 -373.617391 
L 279.418182 -373.617391 
L 283.927273 -373.617391 
L 288.436364 -373.617391 
L 292.945455 -373.617391 
L 297.454545 -373.617391 
L 301.963636 -373.617391 
L 306.472727 -373.617391 
L 310.981818 -373.617391 
L 315.490909 -373.617391 
L 320 -373.617391 
L 324.509091 -373.617391 
L 329.018182 -373.617391 
L 333.527273 -373.617391 
L 338.036364 -373.617391 
L 342.545455 -373.617391 
L 347.054545 -373.617391 
L 351.563636 -373.617391 
L 356.072727 -373.617391 
L 360.581818 -373.617391 
L 365.090909 -373.617391 
L 369.6 -373.617391 
L 374.109091 -373.617391 
L 378.618182 -373.617391 
L 383.127273 -373.617391 
L 387.636364 -373.617391 
L 392.145455 -373.617391 
L 396.654545 -373.617391 
L 401.163636 -373.617391 
L 405.672727 -373.617391 
L 410.181818 -373.617391 
L 414.690909 -373.617391 
L 419.2 -373.617391 
L 423.709091 -373.617391 
L 428.218182 -373.617391 
L 432.727273 -373.617391 
L 437.236364 -373.617391 
L 441.745455 -373.617391 
L 446.254545 -373.617391 
L 450.763636 -373.617391 
L 455.272727 -373.617391 
L 459.781818 -373.617391 
L 464.290909 -373.617391 
L 468.8 -373.617391 
L 473.309091 -373.617391 
L 477.818182 -373.617391 
L 482.327273 -373.617391 
L 486.836364 -373.617391 
L 491.345455 -373.617391 
L 495.854545 -373.617391 
L 500.363636 -373.617391 
L 504.872727 -373.617391 
L 509.381818 -373.617391 
L 513.890909 -373.617391 
L 518.4 -373.617391 
L 518.4 -373.617391 
L 518.4 -373.617391 
L 513.890909 -373.617391 
L 509.381818 -373.617391 
L 504.872727 -373.617391 
L 500.363636 -373.617391 
L 495.854545 -373.617391 
L 491.345455 -373.617391 
L 486.836364 -373.617391 
L 482.327273 -373.617391 
L 477.818182 -373.617391 
L 473.309091 -373.617391 
L 468.8 -373.617391 
L 464.290909 -373.617391 
L 459.781818 -373.617391 
L 455.272727 -373.617391 
L 450.763636 -373.617391 
L 446.254545 -373.617391 
L 441.745455 -373.617391 
L 437.236364 -373.617391 
L 432.727273 -373.617392 
L 428.218182 -373.617393 
L 423.709091 -373.617397 
L 419.2 -373.61741 
L 414.690909 -373.617446 
L 410.181818 -373.61755 
L 405.672727 -373.617832 
L 401.163636 -373.618565 
L 396.654545 -373.620395 
L 392.145455 -373.62478 
L 387.636364 -373.634851 
L 383.127273 -373.657034 
L 378.618182 -373.703871 
L 374.109091 -373.798648 
L 369.6 -373.982397 
L 365.090909 -374.323601 
L 360.581818 -374.930185 
L 356.072727 -375.962091 
L 351.563636 -377.640913 
L 347.054545 -380.251057 
L 342.545455 -384.125608 
L 338.036364 -389.610491 
L 333.527273 -397.003855 
L 329.018182 -406.474148 
L 324.509091 -417.969373 
L 320 -431.138812 
L 315.490909 -445.293493 
L 310.981818 -459.429263 
L 306.472727 -472.324542 
L 301.963636 -482.70566 
L 297.454545 -489.451305 
L 292.945455 -491.791304 
L 288.436364 -489.451305 
L 283.927273 -482.70566 
L 279.418182 -472.324542 
L 274.909091 -459.429263 
L 270.4 -445.293493 
L 265.890909 -431.138812 
L 261.381818 -417.969373 
L 256.872727 -406.474148 
L 252.363636 -397.003855 
L 247.854545 -389.610491 
L 243.345455 -384.125608 
L 238.836364 -380.251057 
L 234.327273 -377.640913 
L 229.818182 -375.962091 
L 225.309091 -374.930185 
L 220.8 -374.323601 
L 216.290909 -373.982397 
L 211.781818 -373.798648 
L 207.272727 -373.703871 
L 202.763636 -373.657034 
L 198.254545 -373.634851 
L 193.745455 -373.62478 
L 189.236364 -373.620395 
L 184.727273 -373.618565 
L 180.218182 -373.617391 
L 175.709091 -373.617391 
L 171.2 -373.617391 
L 166.690909 -373.617391 
L 162.181818 -373.617391 
L 157.672727 -373.617391 
L 153.163636 -373.617391 
L 148.654545 -373.617391 
L 144.145455 -373.617391 
L 139.636364 -373.617391 
L 135.127273 -373.617391 
L 130.618182 -373.617391 
L 126.109091 -373.617391 
L 121.6 -373.617391 
L 117.090909 -373.617391 
L 112.581818 -373.617391 
L 108.072727 -373.617391 
L 103.563636 -373.617391 
L 99.054545 -373.617391 
L 94.545455 -373.617391 
L 90.036364 -373.617391 
L 85.527273 -373.617391 
L 81.018182 -373.617391 
L 76.509091 -373.617391 
L 72 -373.617391 
z
" id="m41f854e4bc" style="stroke:#0000ff;stroke-opacity:0.4;"/>
    </defs>
    <g clip-path="url(#p79c13c41b5)">
     <use style="fill:#0000ff;fill-opacity:0.4;stroke:#0000ff;stroke-opacity:0.4;" x="0" xlink:href="#m41f854e4bc" y="720"/>
    </g>
   </g>
   <g id="matplotlib.axis_3">
    <g id="xtick_5">
     <g id="line2d_20">
      <path clip-path="url(#p79c13c41b5)" d="M 180.218182 346.382609 
L 180.218182 228.208696 
" style="fill:none;stroke:#b0b0b0;stroke-linecap:square;stroke-width:0.8;"/>
     </g>
     <g id="line2d_21">
      <g>
       <use style="stroke:#000000;stroke-width:0.8;" x="180.218182" xlink:href="#mdb4e575f48" y="346.382609"/>
      </g>
     </g>
    </g>
    <g id="xtick_6">
     <g id="line2d_22">
      <path clip-path="url(#p79c13c41b5)" d="M 292.945455 346.382609 
L 292.945455 228.208696 
" style="fill:none;stroke:#b0b0b0;stroke-linecap:square;stroke-width:0.8;"/>
     </g>
     <g id="line2d_23">
      <g>
       <use style="stroke:#000000;stroke-width:0.8;" x="292.945455" xlink:href="#mdb4e575f48" y="346.382609"/>
      </g>
     </g>
    </g>
    <g id="xtick_7">
     <g id="line2d_24">
      <path clip-path="url(#p79c13c41b5)" d="M 405.672727 346.382609 
L 405.672727 228.208696 
" style="fill:none;stroke:#b0b0b0;stroke-linecap:square;stroke-width:0.8;"/>
     </g>
     <g id="line2d_25">
      <g>
       <use style="stroke:#000000;stroke-width:0.8;" x="405.672727" xlink:href="#mdb4e575f48" y="346.382609"/>
      </g>
     </g>
    </g>
    <g id="xtick_8">
     <g id="line2d_26">
      <path clip-path="url(#p79c13c41b5)" d="M 518.4 346.382609 
L 518.4 228.208696 
" style="fill:none;stroke:#b0b0b0;stroke-linecap:square;stroke-width:0.8;"/>
     </g>
     <g id="line2d_27">
      <g>
       <use style="stroke:#000000;stroke-width:0.8;" x="518.4" xlink:href="#mdb4e575f48" y="346.382609"/>
      </g>
     </g>
    </g>
   </g>
   <g id="matplotlib.axis_4">
    <g id="ytick_6">
     <g id="line2d_28">
      <path clip-path="url(#p79c13c41b5)" d="M 72 346.382609 
L 518.4 346.382609 
" style="fill:none;stroke:#b0b0b0;stroke-linecap:square;stroke-width:0.8;"/>
     </g>
     <g id="line2d_29">
      <g>
       <use style="stroke:#000000;stroke-width:0.8;" x="72" xlink:href="#m7e0252fe74" y="346.382609"/>
      </g>
     </g>
     <g id="text_8">
      <!-- 0.00 -->
      <g transform="translate(42.734375 350.181827)scale(0.1 -0.1)">
       <use xlink:href="#DejaVuSans-30"/>
       <use x="63.623047" xlink:href="#DejaVuSans-2e"/>
       <use x="95.410156" xlink:href="#DejaVuSans-30"/>
       <use x="159.033203" xlink:href="#DejaVuSans-30"/>
      </g>
     </g>
    </g>
    <g id="ytick_7">
     <g id="line2d_30">
      <path clip-path="url(#p79c13c41b5)" d="M 72 316.83913 
L 518.4 316.83913 
" style="fill:none;stroke:#b0b0b0;stroke-linecap:square;stroke-width:0.8;"/>
     </g>
     <g id="line2d_31">
      <g>
       <use style="stroke:#000000;stroke-width:0.8;" x="72" xlink:href="#m7e0252fe74" y="316.83913"/>
      </g>
     </g>
     <g id="text_9">
      <!-- 0.25 -->
      <g transform="translate(42.734375 320.638349)scale(0.1 -0.1)">
       <use xlink:href="#DejaVuSans-30"/>
       <use x="63.623047" xlink:href="#DejaVuSans-2e"/>
       <use x="95.410156" xlink:href="#DejaVuSans-32"/>
       <use x="159.033203" xlink:href="#DejaVuSans-35"/>
      </g>
     </g>
    </g>
    <g id="ytick_8">
     <g id="line2d_32">
      <path clip-path="url(#p79c13c41b5)" d="M 72 287.295652 
L 518.4 287.295652 
" style="fill:none;stroke:#b0b0b0;stroke-linecap:square;stroke-width:0.8;"/>
     </g>
     <g id="line2d_33">
      <g>
       <use style="stroke:#000000;stroke-width:0.8;" x="72" xlink:href="#m7e0252fe74" y="287.295652"/>
      </g>
     </g>
     <g id="text_10">
      <!-- 0.50 -->
      <g transform="translate(42.734375 291.094871)scale(0.1 -0.1)">
       <use xlink:href="#DejaVuSans-30"/>
       <use x="63.623047" xlink:href="#DejaVuSans-2e"/>
       <use x="95.410156" xlink:href="#DejaVuSans-35"/>
       <use x="159.033203" xlink:href="#DejaVuSans-30"/>
      </g>
     </g>
    </g>
    <g id="ytick_9">
     <g id="line2d_34">
      <path clip-path="url(#p79c13c41b5)" d="M 72 257.752174 
L 518.4 257.752174 
" style="fill:none;stroke:#b0b0b0;stroke-linecap:square;stroke-width:0.8;"/>
     </g>
     <g id="line2d_35">
      <g>
       <use style="stroke:#000000;stroke-width:0.8;" x="72" xlink:href="#m7e0252fe74" y="257.752174"/>
      </g>
     </g>
     <g id="text_11">
      <!-- 0.75 -->
      <g transform="translate(42.734375 261.551393)scale(0.1 -0.1)">
       <use xlink:href="#DejaVuSans-30"/>
       <use x="63.623047" xlink:href="#DejaVuSans-2e"/>
       <use x="95.410156" xlink:href="#DejaVuSans-37"/>
       <use x="159.033203" xlink:href="#DejaVuSans-35"/>
      </g>
     </g>
    </g>
    <g id="ytick_10">
     <g id="line2d_36">
      <path clip-path="url(#p79c13c41b5)" d="M 72 228.208696 
L 518.4 228.208696 
" style="fill:none;stroke:#b0b0b0;stroke-linecap:square;stroke-width:0.8;"/>
     </g>
     <g id="line2d_37">
      <g>
       <use style="stroke:#000000;stroke-width:0.8;" x="72" xlink:href="#m7e0252fe74" y="228.208696"/>
      </g>
     </g>
     <g id="text_12">
      <!-- 1.00 -->
      <g transform="translate(42.734375 232.007914)scale(0.1 -0.1)">
       <use xlink:href="#DejaVuSans-31"/>
       <use x="63.623047" xlink:href="#DejaVuSans-2e"/>
       <use x="95.410156" xlink:href="#DejaVuSans-30"/>
       <use x="159.033203" xlink:href="#DejaVuSans-30"/>
      </g>
     </g>
    </g>
    <g id="text_13">
     <!-- Height -->
     <g transform="translate(35.406875 313.741902)rotate(-90)scale(0.16 -0.16)">
      <use xlink:href="#DejaVuSans-48"/>
      <use x="75.195312" xlink:href="#DejaVuSans-65"/>
      <use x="136.71875" xlink:href="#DejaVuSans-69"/>
      <use x="164.501953" xlink:href="#DejaVuSans-67"/>
      <use x="227.978516" xlink:href="#DejaVuSans-68"/>
      <use x="291.357422" xlink:href="#DejaVuSans-74"/>
     </g>
    </g>
   </g>
   <g id="line2d_38">
    <path clip-path="url(#p79c13c41b5)" d="M 72 346.382609 
L 76.509091 346.382609 
L 81.018182 346.382609 
L 85.527273 346.382609 
L 90.036364 346.382609 
L 94.545455 346.382609 
L 99.054545 346.382609 
L 103.563636 346.382609 
L 108.072727 346.382609 
L 112.581818 346.382609 
L 117.090909 346.382609 
L 121.6 346.382609 
L 126.109091 346.382609 
L 130.618182 346.382609 
L 135.127273 346.382609 
L 139.636364 346.382609 
L 144.145455 346.382609 
L 148.654545 346.382609 
L 153.163636 346.382609 
L 157.672727 346.382609 
L 162.181818 346.382609 
L 166.690909 346.382609 
L 171.2 346.382609 
L 175.709091 346.382609 
L 180.218182 346.382609 
L 184.727273 346.381435 
L 189.236364 346.379605 
L 193.745455 346.37522 
L 198.254545 346.365149 
L 202.763636 346.342966 
L 207.272727 346.296129 
L 211.781818 346.201352 
L 216.290909 346.017603 
L 220.8 345.676399 
L 225.309091 345.069815 
L 229.818182 344.037909 
L 234.327273 342.359087 
L 238.836364 339.748943 
L 243.345455 335.874392 
L 247.854545 330.389509 
L 252.363636 322.996145 
L 256.872727 313.525852 
L 261.381818 302.030627 
L 265.890909 288.861188 
L 270.4 274.706507 
L 274.909091 260.570737 
L 279.418182 247.675458 
L 283.927273 237.29434 
L 288.436364 230.548695 
L 292.945455 228.208696 
L 297.454545 230.548695 
L 301.963636 237.29434 
L 306.472727 247.675458 
L 310.981818 260.570737 
L 315.490909 274.706507 
L 320 288.861188 
L 324.509091 302.030627 
L 329.018182 313.525852 
L 333.527273 322.996145 
L 338.036364 330.389509 
L 342.545455 335.874392 
L 347.054545 339.748943 
L 351.563636 342.359087 
L 356.072727 344.037909 
L 360.581818 345.069815 
L 365.090909 345.676399 
L 369.6 346.017603 
L 374.109091 346.201352 
L 378.618182 346.296129 
L 383.127273 346.342966 
L 387.636364 346.365149 
L 392.145455 346.37522 
L 396.654545 346.379605 
L 401.163636 346.381435 
L 405.672727 346.382168 
L 410.181818 346.38245 
L 414.690909 346.382554 
L 419.2 346.38259 
L 423.709091 346.382603 
L 428.218182 346.382607 
L 432.727273 346.382608 
L 437.236364 346.382609 
L 441.745455 346.382609 
L 446.254545 346.382609 
L 450.763636 346.382609 
L 455.272727 346.382609 
L 459.781818 346.382609 
L 464.290909 346.382609 
L 468.8 346.382609 
L 473.309091 346.382609 
L 477.818182 346.382609 
L 482.327273 346.382609 
L 486.836364 346.382609 
L 491.345455 346.382609 
L 495.854545 346.382609 
L 500.363636 346.382609 
L 504.872727 346.382609 
L 509.381818 346.382609 
L 513.890909 346.382609 
L 518.4 346.382609 
" style="fill:none;stroke:#0000ff;stroke-linecap:square;stroke-width:1.5;"/>
   </g>
   <g id="patch_8">
    <path d="M 72 346.382609 
L 72 228.208696 
" style="fill:none;stroke:#000000;stroke-linecap:square;stroke-linejoin:miter;stroke-width:0.8;"/>
   </g>
   <g id="patch_9">
    <path d="M 518.4 346.382609 
L 518.4 228.208696 
" style="fill:none;stroke:#000000;stroke-linecap:square;stroke-linejoin:miter;stroke-width:0.8;"/>
   </g>
   <g id="patch_10">
    <path d="M 72 346.382609 
L 518.4 346.382609 
" style="fill:none;stroke:#000000;stroke-linecap:square;stroke-linejoin:miter;stroke-width:0.8;"/>
   </g>
   <g id="patch_11">
    <path d="M 72 228.208696 
L 518.4 228.208696 
" style="fill:none;stroke:#000000;stroke-linecap:square;stroke-linejoin:miter;stroke-width:0.8;"/>
   </g>
   <g id="text_14">
    <!-- Time step  25 -->
    <g transform="translate(254.185312 222.208696)scale(0.12 -0.12)">
     <use xlink:href="#DejaVuSans-54"/>
     <use x="57.958984" xlink:href="#DejaVuSans-69"/>
     <use x="85.742188" xlink:href="#DejaVuSans-6d"/>
     <use x="183.154297" xlink:href="#DejaVuSans-65"/>
     <use x="244.677734" xlink:href="#DejaVuSans-20"/>
     <use x="276.464844" xlink:href="#DejaVuSans-73"/>
     <use x="328.564453" xlink:href="#DejaVuSans-74"/>
     <use x="367.773438" xlink:href="#DejaVuSans-65"/>
     <use x="429.296875" xlink:href="#DejaVuSans-70"/>
     <use x="492.773438" xlink:href="#DejaVuSans-20"/>
     <use x="524.560547" xlink:href="#DejaVuSans-20"/>
     <use x="556.347656" xlink:href="#DejaVuSans-32"/>
     <use x="619.970703" xlink:href="#DejaVuSans-35"/>
    </g>
   </g>
  </g>
  <g id="axes_3">
   <g id="patch_12">
    <path d="M 72 488.191304 
L 518.4 488.191304 
L 518.4 370.017391 
L 72 370.017391 
z
" style="fill:#ffffff;"/>
   </g>
   <g id="PolyCollection_3">
    <defs>
     <path d="M 72 -231.808854 
L 72 -231.808696 
L 76.509091 -231.808696 
L 81.018182 -231.808696 
L 85.527273 -231.808696 
L 90.036364 -231.808696 
L 94.545455 -231.808696 
L 99.054545 -231.808696 
L 103.563636 -231.808696 
L 108.072727 -231.808696 
L 112.581818 -231.808696 
L 117.090909 -231.808696 
L 121.6 -231.808696 
L 126.109091 -231.808696 
L 130.618182 -231.808696 
L 135.127273 -231.808696 
L 139.636364 -231.808696 
L 144.145455 -231.808696 
L 148.654545 -231.808696 
L 153.163636 -231.808696 
L 157.672727 -231.808696 
L 162.181818 -231.808696 
L 166.690909 -231.808696 
L 171.2 -231.808696 
L 175.709091 -231.808696 
L 180.218182 -231.808696 
L 184.727273 -231.808696 
L 189.236364 -231.808696 
L 193.745455 -231.808696 
L 198.254545 -231.808696 
L 202.763636 -231.808696 
L 207.272727 -231.808696 
L 211.781818 -231.808696 
L 216.290909 -231.808696 
L 220.8 -231.808696 
L 225.309091 -231.808696 
L 229.818182 -231.808696 
L 234.327273 -231.808696 
L 238.836364 -231.808696 
L 243.345455 -231.808696 
L 247.854545 -231.808696 
L 252.363636 -231.808696 
L 256.872727 -231.808696 
L 261.381818 -231.808696 
L 265.890909 -231.808696 
L 270.4 -231.808696 
L 274.909091 -231.808696 
L 279.418182 -231.808696 
L 283.927273 -231.808696 
L 288.436364 -231.808696 
L 292.945455 -231.808696 
L 297.454545 -231.808696 
L 301.963636 -231.808696 
L 306.472727 -231.808696 
L 310.981818 -231.808696 
L 315.490909 -231.808696 
L 320 -231.808696 
L 324.509091 -231.808696 
L 329.018182 -231.808696 
L 333.527273 -231.808696 
L 338.036364 -231.808696 
L 342.545455 -231.808696 
L 347.054545 -231.808696 
L 351.563636 -231.808696 
L 356.072727 -231.808696 
L 360.581818 -231.808696 
L 365.090909 -231.808696 
L 369.6 -231.808696 
L 374.109091 -231.808696 
L 378.618182 -231.808696 
L 383.127273 -231.808696 
L 387.636364 -231.808696 
L 392.145455 -231.808696 
L 396.654545 -231.808696 
L 401.163636 -231.808696 
L 405.672727 -231.808696 
L 410.181818 -231.808696 
L 414.690909 -231.808696 
L 419.2 -231.808696 
L 423.709091 -231.808696 
L 428.218182 -231.808696 
L 432.727273 -231.808696 
L 437.236364 -231.808696 
L 441.745455 -231.808696 
L 446.254545 -231.808696 
L 450.763636 -231.808696 
L 455.272727 -231.808696 
L 459.781818 -231.808696 
L 464.290909 -231.808696 
L 468.8 -231.808696 
L 473.309091 -231.808696 
L 477.818182 -231.808696 
L 482.327273 -231.808696 
L 486.836364 -231.808696 
L 491.345455 -231.808696 
L 495.854545 -231.808696 
L 500.363636 -231.808696 
L 504.872727 -231.808696 
L 509.381818 -231.808696 
L 513.890909 -231.808696 
L 518.4 -231.808696 
L 518.4 -231.809136 
L 518.4 -231.809136 
L 513.890909 -231.809869 
L 509.381818 -231.8117 
L 504.872727 -231.816084 
L 500.363636 -231.826156 
L 495.854545 -231.848339 
L 491.345455 -231.895176 
L 486.836364 -231.989952 
L 482.327273 -232.173701 
L 477.818182 -232.514906 
L 473.309091 -233.121489 
L 468.8 -234.153396 
L 464.290909 -235.832217 
L 459.781818 -238.442361 
L 455.272727 -242.316912 
L 450.763636 -247.801795 
L 446.254545 -255.19516 
L 441.745455 -264.665453 
L 437.236364 -276.160678 
L 432.727273 -289.330116 
L 428.218182 -303.484798 
L 423.709091 -317.620567 
L 419.2 -330.515847 
L 414.690909 -340.896964 
L 410.181818 -347.642609 
L 405.672727 -349.982609 
L 401.163636 -347.642609 
L 396.654545 -340.896964 
L 392.145455 -330.515847 
L 387.636364 -317.620567 
L 383.127273 -303.484798 
L 378.618182 -289.330116 
L 374.109091 -276.160678 
L 369.6 -264.665453 
L 365.090909 -255.19516 
L 360.581818 -247.801795 
L 356.072727 -242.316912 
L 351.563636 -238.442361 
L 347.054545 -235.832217 
L 342.545455 -234.153396 
L 338.036364 -233.121489 
L 333.527273 -232.514906 
L 329.018182 -232.173701 
L 324.509091 -231.989952 
L 320 -231.895176 
L 315.490909 -231.848339 
L 310.981818 -231.826156 
L 306.472727 -231.816084 
L 301.963636 -231.8117 
L 297.454545 -231.809869 
L 292.945455 -231.808696 
L 288.436364 -231.808696 
L 283.927273 -231.808696 
L 279.418182 -231.808696 
L 274.909091 -231.808696 
L 270.4 -231.808696 
L 265.890909 -231.808696 
L 261.381818 -231.808696 
L 256.872727 -231.808696 
L 252.363636 -231.808696 
L 247.854545 -231.808696 
L 243.345455 -231.808696 
L 238.836364 -231.808696 
L 234.327273 -231.808696 
L 229.818182 -231.808696 
L 225.309091 -231.808696 
L 220.8 -231.808696 
L 216.290909 -231.808696 
L 211.781818 -231.808696 
L 207.272727 -231.808696 
L 202.763636 -231.808696 
L 198.254545 -231.808696 
L 193.745455 -231.808696 
L 189.236364 -231.808696 
L 184.727273 -231.808696 
L 180.218182 -231.808696 
L 175.709091 -231.808696 
L 171.2 -231.808696 
L 166.690909 -231.808696 
L 162.181818 -231.808696 
L 157.672727 -231.808696 
L 153.163636 -231.808696 
L 148.654545 -231.808696 
L 144.145455 -231.808696 
L 139.636364 -231.808696 
L 135.127273 -231.808696 
L 130.618182 -231.808696 
L 126.109091 -231.808696 
L 121.6 -231.808696 
L 117.090909 -231.808696 
L 112.581818 -231.808696 
L 108.072727 -231.808696 
L 103.563636 -231.808696 
L 99.054545 -231.808696 
L 94.545455 -231.808696 
L 90.036364 -231.808697 
L 85.527273 -231.808702 
L 81.018182 -231.808714 
L 76.509091 -231.808751 
L 72 -231.808854 
z
" id="m499e496a6a" style="stroke:#0000ff;stroke-opacity:0.4;"/>
    </defs>
    <g clip-path="url(#p08c537a433)">
     <use style="fill:#0000ff;fill-opacity:0.4;stroke:#0000ff;stroke-opacity:0.4;" x="0" xlink:href="#m499e496a6a" y="720"/>
    </g>
   </g>
   <g id="matplotlib.axis_5">
    <g id="xtick_9">
     <g id="line2d_39">
      <path clip-path="url(#p08c537a433)" d="M 180.218182 488.191304 
L 180.218182 370.017391 
" style="fill:none;stroke:#b0b0b0;stroke-linecap:square;stroke-width:0.8;"/>
     </g>
     <g id="line2d_40">
      <g>
       <use style="stroke:#000000;stroke-width:0.8;" x="180.218182" xlink:href="#mdb4e575f48" y="488.191304"/>
      </g>
     </g>
    </g>
    <g id="xtick_10">
     <g id="line2d_41">
      <path clip-path="url(#p08c537a433)" d="M 292.945455 488.191304 
L 292.945455 370.017391 
" style="fill:none;stroke:#b0b0b0;stroke-linecap:square;stroke-width:0.8;"/>
     </g>
     <g id="line2d_42">
      <g>
       <use style="stroke:#000000;stroke-width:0.8;" x="292.945455" xlink:href="#mdb4e575f48" y="488.191304"/>
      </g>
     </g>
    </g>
    <g id="xtick_11">
     <g id="line2d_43">
      <path clip-path="url(#p08c537a433)" d="M 405.672727 488.191304 
L 405.672727 370.017391 
" style="fill:none;stroke:#b0b0b0;stroke-linecap:square;stroke-width:0.8;"/>
     </g>
     <g id="line2d_44">
      <g>
       <use style="stroke:#000000;stroke-width:0.8;" x="405.672727" xlink:href="#mdb4e575f48" y="488.191304"/>
      </g>
     </g>
    </g>
    <g id="xtick_12">
     <g id="line2d_45">
      <path clip-path="url(#p08c537a433)" d="M 518.4 488.191304 
L 518.4 370.017391 
" style="fill:none;stroke:#b0b0b0;stroke-linecap:square;stroke-width:0.8;"/>
     </g>
     <g id="line2d_46">
      <g>
       <use style="stroke:#000000;stroke-width:0.8;" x="518.4" xlink:href="#mdb4e575f48" y="488.191304"/>
      </g>
     </g>
    </g>
   </g>
   <g id="matplotlib.axis_6">
    <g id="ytick_11">
     <g id="line2d_47">
      <path clip-path="url(#p08c537a433)" d="M 72 488.191304 
L 518.4 488.191304 
" style="fill:none;stroke:#b0b0b0;stroke-linecap:square;stroke-width:0.8;"/>
     </g>
     <g id="line2d_48">
      <g>
       <use style="stroke:#000000;stroke-width:0.8;" x="72" xlink:href="#m7e0252fe74" y="488.191304"/>
      </g>
     </g>
     <g id="text_15">
      <!-- 0.00 -->
      <g transform="translate(42.734375 491.990523)scale(0.1 -0.1)">
       <use xlink:href="#DejaVuSans-30"/>
       <use x="63.623047" xlink:href="#DejaVuSans-2e"/>
       <use x="95.410156" xlink:href="#DejaVuSans-30"/>
       <use x="159.033203" xlink:href="#DejaVuSans-30"/>
      </g>
     </g>
    </g>
    <g id="ytick_12">
     <g id="line2d_49">
      <path clip-path="url(#p08c537a433)" d="M 72 458.647826 
L 518.4 458.647826 
" style="fill:none;stroke:#b0b0b0;stroke-linecap:square;stroke-width:0.8;"/>
     </g>
     <g id="line2d_50">
      <g>
       <use style="stroke:#000000;stroke-width:0.8;" x="72" xlink:href="#m7e0252fe74" y="458.647826"/>
      </g>
     </g>
     <g id="text_16">
      <!-- 0.25 -->
      <g transform="translate(42.734375 462.447045)scale(0.1 -0.1)">
       <use xlink:href="#DejaVuSans-30"/>
       <use x="63.623047" xlink:href="#DejaVuSans-2e"/>
       <use x="95.410156" xlink:href="#DejaVuSans-32"/>
       <use x="159.033203" xlink:href="#DejaVuSans-35"/>
      </g>
     </g>
    </g>
    <g id="ytick_13">
     <g id="line2d_51">
      <path clip-path="url(#p08c537a433)" d="M 72 429.104348 
L 518.4 429.104348 
" style="fill:none;stroke:#b0b0b0;stroke-linecap:square;stroke-width:0.8;"/>
     </g>
     <g id="line2d_52">
      <g>
       <use style="stroke:#000000;stroke-width:0.8;" x="72" xlink:href="#m7e0252fe74" y="429.104348"/>
      </g>
     </g>
     <g id="text_17">
      <!-- 0.50 -->
      <g transform="translate(42.734375 432.903567)scale(0.1 -0.1)">
       <use xlink:href="#DejaVuSans-30"/>
       <use x="63.623047" xlink:href="#DejaVuSans-2e"/>
       <use x="95.410156" xlink:href="#DejaVuSans-35"/>
       <use x="159.033203" xlink:href="#DejaVuSans-30"/>
      </g>
     </g>
    </g>
    <g id="ytick_14">
     <g id="line2d_53">
      <path clip-path="url(#p08c537a433)" d="M 72 399.56087 
L 518.4 399.56087 
" style="fill:none;stroke:#b0b0b0;stroke-linecap:square;stroke-width:0.8;"/>
     </g>
     <g id="line2d_54">
      <g>
       <use style="stroke:#000000;stroke-width:0.8;" x="72" xlink:href="#m7e0252fe74" y="399.56087"/>
      </g>
     </g>
     <g id="text_18">
      <!-- 0.75 -->
      <g transform="translate(42.734375 403.360088)scale(0.1 -0.1)">
       <use xlink:href="#DejaVuSans-30"/>
       <use x="63.623047" xlink:href="#DejaVuSans-2e"/>
       <use x="95.410156" xlink:href="#DejaVuSans-37"/>
       <use x="159.033203" xlink:href="#DejaVuSans-35"/>
      </g>
     </g>
    </g>
    <g id="ytick_15">
     <g id="line2d_55">
      <path clip-path="url(#p08c537a433)" d="M 72 370.017391 
L 518.4 370.017391 
" style="fill:none;stroke:#b0b0b0;stroke-linecap:square;stroke-width:0.8;"/>
     </g>
     <g id="line2d_56">
      <g>
       <use style="stroke:#000000;stroke-width:0.8;" x="72" xlink:href="#m7e0252fe74" y="370.017391"/>
      </g>
     </g>
     <g id="text_19">
      <!-- 1.00 -->
      <g transform="translate(42.734375 373.81661)scale(0.1 -0.1)">
       <use xlink:href="#DejaVuSans-31"/>
       <use x="63.623047" xlink:href="#DejaVuSans-2e"/>
       <use x="95.410156" xlink:href="#DejaVuSans-30"/>
       <use x="159.033203" xlink:href="#DejaVuSans-30"/>
      </g>
     </g>
    </g>
    <g id="text_20">
     <!-- Height -->
     <g transform="translate(35.406875 455.550598)rotate(-90)scale(0.16 -0.16)">
      <use xlink:href="#DejaVuSans-48"/>
      <use x="75.195312" xlink:href="#DejaVuSans-65"/>
      <use x="136.71875" xlink:href="#DejaVuSans-69"/>
      <use x="164.501953" xlink:href="#DejaVuSans-67"/>
      <use x="227.978516" xlink:href="#DejaVuSans-68"/>
      <use x="291.357422" xlink:href="#DejaVuSans-74"/>
     </g>
    </g>
   </g>
   <g id="line2d_57">
    <path clip-path="url(#p08c537a433)" d="M 72 488.191146 
L 76.509091 488.191249 
L 81.018182 488.191286 
L 85.527273 488.191298 
L 90.036364 488.191303 
L 94.545455 488.191304 
L 99.054545 488.191304 
L 103.563636 488.191304 
L 108.072727 488.191304 
L 112.581818 488.191304 
L 117.090909 488.191304 
L 121.6 488.191304 
L 126.109091 488.191304 
L 130.618182 488.191304 
L 135.127273 488.191304 
L 139.636364 488.191304 
L 144.145455 488.191304 
L 148.654545 488.191304 
L 153.163636 488.191304 
L 157.672727 488.191304 
L 162.181818 488.191304 
L 166.690909 488.191304 
L 171.2 488.191304 
L 175.709091 488.191304 
L 180.218182 488.191304 
L 184.727273 488.191304 
L 189.236364 488.191304 
L 193.745455 488.191304 
L 198.254545 488.191304 
L 202.763636 488.191304 
L 207.272727 488.191304 
L 211.781818 488.191304 
L 216.290909 488.191304 
L 220.8 488.191304 
L 225.309091 488.191304 
L 229.818182 488.191304 
L 234.327273 488.191304 
L 238.836364 488.191304 
L 243.345455 488.191304 
L 247.854545 488.191304 
L 252.363636 488.191304 
L 256.872727 488.191304 
L 261.381818 488.191304 
L 265.890909 488.191304 
L 270.4 488.191304 
L 274.909091 488.191304 
L 279.418182 488.191304 
L 283.927273 488.191304 
L 288.436364 488.191304 
L 292.945455 488.191304 
L 297.454545 488.190131 
L 301.963636 488.1883 
L 306.472727 488.183916 
L 310.981818 488.173844 
L 315.490909 488.151661 
L 320 488.104824 
L 324.509091 488.010048 
L 329.018182 487.826299 
L 333.527273 487.485094 
L 338.036364 486.878511 
L 342.545455 485.846604 
L 347.054545 484.167783 
L 351.563636 481.557639 
L 356.072727 477.683088 
L 360.581818 472.198205 
L 365.090909 464.80484 
L 369.6 455.334547 
L 374.109091 443.839322 
L 378.618182 430.669884 
L 383.127273 416.515202 
L 387.636364 402.379433 
L 392.145455 389.484153 
L 396.654545 379.103036 
L 401.163636 372.357391 
L 405.672727 370.017391 
L 410.181818 372.357391 
L 414.690909 379.103036 
L 419.2 389.484153 
L 423.709091 402.379433 
L 428.218182 416.515202 
L 432.727273 430.669884 
L 437.236364 443.839322 
L 441.745455 455.334547 
L 446.254545 464.80484 
L 450.763636 472.198205 
L 455.272727 477.683088 
L 459.781818 481.557639 
L 464.290909 484.167783 
L 468.8 485.846604 
L 473.309091 486.878511 
L 477.818182 487.485094 
L 482.327273 487.826299 
L 486.836364 488.010048 
L 491.345455 488.104824 
L 495.854545 488.151661 
L 500.363636 488.173844 
L 504.872727 488.183916 
L 509.381818 488.1883 
L 513.890909 488.190131 
L 518.4 488.190864 
" style="fill:none;stroke:#0000ff;stroke-linecap:square;stroke-width:1.5;"/>
   </g>
   <g id="patch_13">
    <path d="M 72 488.191304 
L 72 370.017391 
" style="fill:none;stroke:#000000;stroke-linecap:square;stroke-linejoin:miter;stroke-width:0.8;"/>
   </g>
   <g id="patch_14">
    <path d="M 518.4 488.191304 
L 518.4 370.017391 
" style="fill:none;stroke:#000000;stroke-linecap:square;stroke-linejoin:miter;stroke-width:0.8;"/>
   </g>
   <g id="patch_15">
    <path d="M 72 488.191304 
L 518.4 488.191304 
" style="fill:none;stroke:#000000;stroke-linecap:square;stroke-linejoin:miter;stroke-width:0.8;"/>
   </g>
   <g id="patch_16">
    <path d="M 72 370.017391 
L 518.4 370.017391 
" style="fill:none;stroke:#000000;stroke-linecap:square;stroke-linejoin:miter;stroke-width:0.8;"/>
   </g>
   <g id="text_21">
    <!-- Time step  50 -->
    <g transform="translate(254.185312 364.017391)scale(0.12 -0.12)">
     <use xlink:href="#DejaVuSans-54"/>
     <use x="57.958984" xlink:href="#DejaVuSans-69"/>
     <use x="85.742188" xlink:href="#DejaVuSans-6d"/>
     <use x="183.154297" xlink:href="#DejaVuSans-65"/>
     <use x="244.677734" xlink:href="#DejaVuSans-20"/>
     <use x="276.464844" xlink:href="#DejaVuSans-73"/>
     <use x="328.564453" xlink:href="#DejaVuSans-74"/>
     <use x="367.773438" xlink:href="#DejaVuSans-65"/>
     <use x="429.296875" xlink:href="#DejaVuSans-70"/>
     <use x="492.773438" xlink:href="#DejaVuSans-20"/>
     <use x="524.560547" xlink:href="#DejaVuSans-20"/>
     <use x="556.347656" xlink:href="#DejaVuSans-35"/>
     <use x="619.970703" xlink:href="#DejaVuSans-30"/>
    </g>
   </g>
  </g>
  <g id="axes_4">
   <g id="patch_17">
    <path d="M 72 630 
L 518.4 630 
L 518.4 511.826087 
L 72 511.826087 
z
" style="fill:#ffffff;"/>
   </g>
   <g id="PolyCollection_4">
    <defs>
     <path d="M 72 -205.833914 
L 72 -90 
L 76.509091 -90 
L 81.018182 -90 
L 85.527273 -90 
L 90.036364 -90 
L 94.545455 -90 
L 99.054545 -90 
L 103.563636 -90 
L 108.072727 -90 
L 112.581818 -90 
L 117.090909 -90 
L 121.6 -90 
L 126.109091 -90 
L 130.618182 -90 
L 135.127273 -90 
L 139.636364 -90 
L 144.145455 -90 
L 148.654545 -90 
L 153.163636 -90 
L 157.672727 -90 
L 162.181818 -90 
L 166.690909 -90 
L 171.2 -90 
L 175.709091 -90 
L 180.218182 -90 
L 184.727273 -90 
L 189.236364 -90 
L 193.745455 -90 
L 198.254545 -90 
L 202.763636 -90 
L 207.272727 -90 
L 211.781818 -90 
L 216.290909 -90 
L 220.8 -90 
L 225.309091 -90 
L 229.818182 -90 
L 234.327273 -90 
L 238.836364 -90 
L 243.345455 -90 
L 247.854545 -90 
L 252.363636 -90 
L 256.872727 -90 
L 261.381818 -90 
L 265.890909 -90 
L 270.4 -90 
L 274.909091 -90 
L 279.418182 -90 
L 283.927273 -90 
L 288.436364 -90 
L 292.945455 -90 
L 297.454545 -90 
L 301.963636 -90 
L 306.472727 -90 
L 310.981818 -90 
L 315.490909 -90 
L 320 -90 
L 324.509091 -90 
L 329.018182 -90 
L 333.527273 -90 
L 338.036364 -90 
L 342.545455 -90 
L 347.054545 -90 
L 351.563636 -90 
L 356.072727 -90 
L 360.581818 -90 
L 365.090909 -90 
L 369.6 -90 
L 374.109091 -90 
L 378.618182 -90 
L 383.127273 -90 
L 387.636364 -90 
L 392.145455 -90 
L 396.654545 -90 
L 401.163636 -90 
L 405.672727 -90 
L 410.181818 -90 
L 414.690909 -90 
L 419.2 -90 
L 423.709091 -90 
L 428.218182 -90 
L 432.727273 -90 
L 437.236364 -90 
L 441.745455 -90 
L 446.254545 -90 
L 450.763636 -90 
L 455.272727 -90 
L 459.781818 -90 
L 464.290909 -90 
L 468.8 -90 
L 473.309091 -90 
L 477.818182 -90 
L 482.327273 -90 
L 486.836364 -90 
L 491.345455 -90 
L 495.854545 -90 
L 500.363636 -90 
L 504.872727 -90 
L 509.381818 -90 
L 513.890909 -90 
L 518.4 -90 
L 518.4 -208.173913 
L 518.4 -208.173913 
L 513.890909 -205.833914 
L 509.381818 -199.088268 
L 504.872727 -188.707151 
L 500.363636 -175.811872 
L 495.854545 -161.676102 
L 491.345455 -147.521421 
L 486.836364 -134.351982 
L 482.327273 -122.856757 
L 477.818182 -113.386464 
L 473.309091 -105.9931 
L 468.8 -100.508217 
L 464.290909 -96.633666 
L 459.781818 -94.023521 
L 455.272727 -92.3447 
L 450.763636 -91.312794 
L 446.254545 -90.70621 
L 441.745455 -90.365006 
L 437.236364 -90.181256 
L 432.727273 -90.08648 
L 428.218182 -90.039643 
L 423.709091 -90.01746 
L 419.2 -90.007388 
L 414.690909 -90.003004 
L 410.181818 -90.001173 
L 405.672727 -90 
L 401.163636 -90 
L 396.654545 -90 
L 392.145455 -90 
L 387.636364 -90 
L 383.127273 -90 
L 378.618182 -90 
L 374.109091 -90 
L 369.6 -90 
L 365.090909 -90 
L 360.581818 -90 
L 356.072727 -90 
L 351.563636 -90 
L 347.054545 -90 
L 342.545455 -90 
L 338.036364 -90 
L 333.527273 -90 
L 329.018182 -90 
L 324.509091 -90 
L 320 -90 
L 315.490909 -90 
L 310.981818 -90 
L 306.472727 -90 
L 301.963636 -90 
L 297.454545 -90 
L 292.945455 -90 
L 288.436364 -90 
L 283.927273 -90 
L 279.418182 -90 
L 274.909091 -90 
L 270.4 -90 
L 265.890909 -90 
L 261.381818 -90 
L 256.872727 -90 
L 252.363636 -90 
L 247.854545 -90 
L 243.345455 -90 
L 238.836364 -90 
L 234.327273 -90 
L 229.818182 -90 
L 225.309091 -90 
L 220.8 -90 
L 216.290909 -90 
L 211.781818 -90 
L 207.272727 -90.000001 
L 202.763636 -90.000002 
L 198.254545 -90.000006 
L 193.745455 -90.000018 
L 189.236364 -90.000055 
L 184.727273 -90.000159 
L 180.218182 -90.00044 
L 175.709091 -90.001173 
L 171.2 -90.003004 
L 166.690909 -90.007388 
L 162.181818 -90.01746 
L 157.672727 -90.039643 
L 153.163636 -90.08648 
L 148.654545 -90.181256 
L 144.145455 -90.365006 
L 139.636364 -90.70621 
L 135.127273 -91.312794 
L 130.618182 -92.3447 
L 126.109091 -94.023521 
L 121.6 -96.633666 
L 117.090909 -100.508217 
L 112.581818 -105.9931 
L 108.072727 -113.386464 
L 103.563636 -122.856757 
L 99.054545 -134.351982 
L 94.545455 -147.521421 
L 90.036364 -161.676102 
L 85.527273 -175.811872 
L 81.018182 -188.707151 
L 76.509091 -199.088268 
L 72 -205.833914 
z
" id="m3a64a7633e" style="stroke:#0000ff;stroke-opacity:0.4;"/>
    </defs>
    <g clip-path="url(#p026a5cad55)">
     <use style="fill:#0000ff;fill-opacity:0.4;stroke:#0000ff;stroke-opacity:0.4;" x="0" xlink:href="#m3a64a7633e" y="720"/>
    </g>
   </g>
   <g id="matplotlib.axis_7">
    <g id="xtick_13">
     <g id="line2d_58">
      <path clip-path="url(#p026a5cad55)" d="M 180.218182 630 
L 180.218182 511.826087 
" style="fill:none;stroke:#b0b0b0;stroke-linecap:square;stroke-width:0.8;"/>
     </g>
     <g id="line2d_59">
      <g>
       <use style="stroke:#000000;stroke-width:0.8;" x="180.218182" xlink:href="#mdb4e575f48" y="630"/>
      </g>
     </g>
     <g id="text_22">
      <!-- 25 -->
      <g transform="translate(173.855682 644.598438)scale(0.1 -0.1)">
       <use xlink:href="#DejaVuSans-32"/>
       <use x="63.623047" xlink:href="#DejaVuSans-35"/>
      </g>
     </g>
    </g>
    <g id="xtick_14">
     <g id="line2d_60">
      <path clip-path="url(#p026a5cad55)" d="M 292.945455 630 
L 292.945455 511.826087 
" style="fill:none;stroke:#b0b0b0;stroke-linecap:square;stroke-width:0.8;"/>
     </g>
     <g id="line2d_61">
      <g>
       <use style="stroke:#000000;stroke-width:0.8;" x="292.945455" xlink:href="#mdb4e575f48" y="630"/>
      </g>
     </g>
     <g id="text_23">
      <!-- 50 -->
      <g transform="translate(286.582955 644.598438)scale(0.1 -0.1)">
       <use xlink:href="#DejaVuSans-35"/>
       <use x="63.623047" xlink:href="#DejaVuSans-30"/>
      </g>
     </g>
    </g>
    <g id="xtick_15">
     <g id="line2d_62">
      <path clip-path="url(#p026a5cad55)" d="M 405.672727 630 
L 405.672727 511.826087 
" style="fill:none;stroke:#b0b0b0;stroke-linecap:square;stroke-width:0.8;"/>
     </g>
     <g id="line2d_63">
      <g>
       <use style="stroke:#000000;stroke-width:0.8;" x="405.672727" xlink:href="#mdb4e575f48" y="630"/>
      </g>
     </g>
     <g id="text_24">
      <!-- 75 -->
      <g transform="translate(399.310227 644.598438)scale(0.1 -0.1)">
       <use xlink:href="#DejaVuSans-37"/>
       <use x="63.623047" xlink:href="#DejaVuSans-35"/>
      </g>
     </g>
    </g>
    <g id="xtick_16">
     <g id="line2d_64">
      <path clip-path="url(#p026a5cad55)" d="M 518.4 630 
L 518.4 511.826087 
" style="fill:none;stroke:#b0b0b0;stroke-linecap:square;stroke-width:0.8;"/>
     </g>
     <g id="line2d_65">
      <g>
       <use style="stroke:#000000;stroke-width:0.8;" x="518.4" xlink:href="#mdb4e575f48" y="630"/>
      </g>
     </g>
     <g id="text_25">
      <!-- 100 -->
      <g transform="translate(508.85625 644.598438)scale(0.1 -0.1)">
       <use xlink:href="#DejaVuSans-31"/>
       <use x="63.623047" xlink:href="#DejaVuSans-30"/>
       <use x="127.246094" xlink:href="#DejaVuSans-30"/>
      </g>
     </g>
    </g>
    <g id="text_26">
     <!-- Spatial grid index -->
     <g transform="translate(225.01375 662.835625)scale(0.16 -0.16)">
      <defs>
       <path d="M 3425 4513 
L 3425 3897 
Q 3066 4069 2747 4153 
Q 2428 4238 2131 4238 
Q 1616 4238 1336 4038 
Q 1056 3838 1056 3469 
Q 1056 3159 1242 3001 
Q 1428 2844 1947 2747 
L 2328 2669 
Q 3034 2534 3370 2195 
Q 3706 1856 3706 1288 
Q 3706 609 3251 259 
Q 2797 -91 1919 -91 
Q 1588 -91 1214 -16 
Q 841 59 441 206 
L 441 856 
Q 825 641 1194 531 
Q 1563 422 1919 422 
Q 2459 422 2753 634 
Q 3047 847 3047 1241 
Q 3047 1584 2836 1778 
Q 2625 1972 2144 2069 
L 1759 2144 
Q 1053 2284 737 2584 
Q 422 2884 422 3419 
Q 422 4038 858 4394 
Q 1294 4750 2059 4750 
Q 2388 4750 2728 4690 
Q 3069 4631 3425 4513 
z
" id="DejaVuSans-53" transform="scale(0.015625)"/>
       <path d="M 2194 1759 
Q 1497 1759 1228 1600 
Q 959 1441 959 1056 
Q 959 750 1161 570 
Q 1363 391 1709 391 
Q 2188 391 2477 730 
Q 2766 1069 2766 1631 
L 2766 1759 
L 2194 1759 
z
M 3341 1997 
L 3341 0 
L 2766 0 
L 2766 531 
Q 2569 213 2275 61 
Q 1981 -91 1556 -91 
Q 1019 -91 701 211 
Q 384 513 384 1019 
Q 384 1609 779 1909 
Q 1175 2209 1959 2209 
L 2766 2209 
L 2766 2266 
Q 2766 2663 2505 2880 
Q 2244 3097 1772 3097 
Q 1472 3097 1187 3025 
Q 903 2953 641 2809 
L 641 3341 
Q 956 3463 1253 3523 
Q 1550 3584 1831 3584 
Q 2591 3584 2966 3190 
Q 3341 2797 3341 1997 
z
" id="DejaVuSans-61" transform="scale(0.015625)"/>
       <path d="M 603 4863 
L 1178 4863 
L 1178 0 
L 603 0 
L 603 4863 
z
" id="DejaVuSans-6c" transform="scale(0.015625)"/>
       <path d="M 2631 2963 
Q 2534 3019 2420 3045 
Q 2306 3072 2169 3072 
Q 1681 3072 1420 2755 
Q 1159 2438 1159 1844 
L 1159 0 
L 581 0 
L 581 3500 
L 1159 3500 
L 1159 2956 
Q 1341 3275 1631 3429 
Q 1922 3584 2338 3584 
Q 2397 3584 2469 3576 
Q 2541 3569 2628 3553 
L 2631 2963 
z
" id="DejaVuSans-72" transform="scale(0.015625)"/>
       <path d="M 2906 2969 
L 2906 4863 
L 3481 4863 
L 3481 0 
L 2906 0 
L 2906 525 
Q 2725 213 2448 61 
Q 2172 -91 1784 -91 
Q 1150 -91 751 415 
Q 353 922 353 1747 
Q 353 2572 751 3078 
Q 1150 3584 1784 3584 
Q 2172 3584 2448 3432 
Q 2725 3281 2906 2969 
z
M 947 1747 
Q 947 1113 1208 752 
Q 1469 391 1925 391 
Q 2381 391 2643 752 
Q 2906 1113 2906 1747 
Q 2906 2381 2643 2742 
Q 2381 3103 1925 3103 
Q 1469 3103 1208 2742 
Q 947 2381 947 1747 
z
" id="DejaVuSans-64" transform="scale(0.015625)"/>
       <path d="M 3513 2113 
L 3513 0 
L 2938 0 
L 2938 2094 
Q 2938 2591 2744 2837 
Q 2550 3084 2163 3084 
Q 1697 3084 1428 2787 
Q 1159 2491 1159 1978 
L 1159 0 
L 581 0 
L 581 3500 
L 1159 3500 
L 1159 2956 
Q 1366 3272 1645 3428 
Q 1925 3584 2291 3584 
Q 2894 3584 3203 3211 
Q 3513 2838 3513 2113 
z
" id="DejaVuSans-6e" transform="scale(0.015625)"/>
       <path d="M 3513 3500 
L 2247 1797 
L 3578 0 
L 2900 0 
L 1881 1375 
L 863 0 
L 184 0 
L 1544 1831 
L 300 3500 
L 978 3500 
L 1906 2253 
L 2834 3500 
L 3513 3500 
z
" id="DejaVuSans-78" transform="scale(0.015625)"/>
      </defs>
      <use xlink:href="#DejaVuSans-53"/>
      <use x="63.476562" xlink:href="#DejaVuSans-70"/>
      <use x="126.953125" xlink:href="#DejaVuSans-61"/>
      <use x="188.232422" xlink:href="#DejaVuSans-74"/>
      <use x="227.441406" xlink:href="#DejaVuSans-69"/>
      <use x="255.224609" xlink:href="#DejaVuSans-61"/>
      <use x="316.503906" xlink:href="#DejaVuSans-6c"/>
      <use x="344.287109" xlink:href="#DejaVuSans-20"/>
      <use x="376.074219" xlink:href="#DejaVuSans-67"/>
      <use x="439.550781" xlink:href="#DejaVuSans-72"/>
      <use x="480.664062" xlink:href="#DejaVuSans-69"/>
      <use x="508.447266" xlink:href="#DejaVuSans-64"/>
      <use x="571.923828" xlink:href="#DejaVuSans-20"/>
      <use x="603.710938" xlink:href="#DejaVuSans-69"/>
      <use x="631.494141" xlink:href="#DejaVuSans-6e"/>
      <use x="694.873047" xlink:href="#DejaVuSans-64"/>
      <use x="758.349609" xlink:href="#DejaVuSans-65"/>
      <use x="818.123047" xlink:href="#DejaVuSans-78"/>
     </g>
    </g>
   </g>
   <g id="matplotlib.axis_8">
    <g id="ytick_16">
     <g id="line2d_66">
      <path clip-path="url(#p026a5cad55)" d="M 72 630 
L 518.4 630 
" style="fill:none;stroke:#b0b0b0;stroke-linecap:square;stroke-width:0.8;"/>
     </g>
     <g id="line2d_67">
      <g>
       <use style="stroke:#000000;stroke-width:0.8;" x="72" xlink:href="#m7e0252fe74" y="630"/>
      </g>
     </g>
     <g id="text_27">
      <!-- 0.00 -->
      <g transform="translate(42.734375 633.799219)scale(0.1 -0.1)">
       <use xlink:href="#DejaVuSans-30"/>
       <use x="63.623047" xlink:href="#DejaVuSans-2e"/>
       <use x="95.410156" xlink:href="#DejaVuSans-30"/>
       <use x="159.033203" xlink:href="#DejaVuSans-30"/>
      </g>
     </g>
    </g>
    <g id="ytick_17">
     <g id="line2d_68">
      <path clip-path="url(#p026a5cad55)" d="M 72 600.456522 
L 518.4 600.456522 
" style="fill:none;stroke:#b0b0b0;stroke-linecap:square;stroke-width:0.8;"/>
     </g>
     <g id="line2d_69">
      <g>
       <use style="stroke:#000000;stroke-width:0.8;" x="72" xlink:href="#m7e0252fe74" y="600.456522"/>
      </g>
     </g>
     <g id="text_28">
      <!-- 0.25 -->
      <g transform="translate(42.734375 604.25574)scale(0.1 -0.1)">
       <use xlink:href="#DejaVuSans-30"/>
       <use x="63.623047" xlink:href="#DejaVuSans-2e"/>
       <use x="95.410156" xlink:href="#DejaVuSans-32"/>
       <use x="159.033203" xlink:href="#DejaVuSans-35"/>
      </g>
     </g>
    </g>
    <g id="ytick_18">
     <g id="line2d_70">
      <path clip-path="url(#p026a5cad55)" d="M 72 570.913043 
L 518.4 570.913043 
" style="fill:none;stroke:#b0b0b0;stroke-linecap:square;stroke-width:0.8;"/>
     </g>
     <g id="line2d_71">
      <g>
       <use style="stroke:#000000;stroke-width:0.8;" x="72" xlink:href="#m7e0252fe74" y="570.913043"/>
      </g>
     </g>
     <g id="text_29">
      <!-- 0.50 -->
      <g transform="translate(42.734375 574.712262)scale(0.1 -0.1)">
       <use xlink:href="#DejaVuSans-30"/>
       <use x="63.623047" xlink:href="#DejaVuSans-2e"/>
       <use x="95.410156" xlink:href="#DejaVuSans-35"/>
       <use x="159.033203" xlink:href="#DejaVuSans-30"/>
      </g>
     </g>
    </g>
    <g id="ytick_19">
     <g id="line2d_72">
      <path clip-path="url(#p026a5cad55)" d="M 72 541.369565 
L 518.4 541.369565 
" style="fill:none;stroke:#b0b0b0;stroke-linecap:square;stroke-width:0.8;"/>
     </g>
     <g id="line2d_73">
      <g>
       <use style="stroke:#000000;stroke-width:0.8;" x="72" xlink:href="#m7e0252fe74" y="541.369565"/>
      </g>
     </g>
     <g id="text_30">
      <!-- 0.75 -->
      <g transform="translate(42.734375 545.168784)scale(0.1 -0.1)">
       <use xlink:href="#DejaVuSans-30"/>
       <use x="63.623047" xlink:href="#DejaVuSans-2e"/>
       <use x="95.410156" xlink:href="#DejaVuSans-37"/>
       <use x="159.033203" xlink:href="#DejaVuSans-35"/>
      </g>
     </g>
    </g>
    <g id="ytick_20">
     <g id="line2d_74">
      <path clip-path="url(#p026a5cad55)" d="M 72 511.826087 
L 518.4 511.826087 
" style="fill:none;stroke:#b0b0b0;stroke-linecap:square;stroke-width:0.8;"/>
     </g>
     <g id="line2d_75">
      <g>
       <use style="stroke:#000000;stroke-width:0.8;" x="72" xlink:href="#m7e0252fe74" y="511.826087"/>
      </g>
     </g>
     <g id="text_31">
      <!-- 1.00 -->
      <g transform="translate(42.734375 515.625306)scale(0.1 -0.1)">
       <use xlink:href="#DejaVuSans-31"/>
       <use x="63.623047" xlink:href="#DejaVuSans-2e"/>
       <use x="95.410156" xlink:href="#DejaVuSans-30"/>
       <use x="159.033203" xlink:href="#DejaVuSans-30"/>
      </g>
     </g>
    </g>
    <g id="text_32">
     <!-- Height -->
     <g transform="translate(35.406875 597.359293)rotate(-90)scale(0.16 -0.16)">
      <use xlink:href="#DejaVuSans-48"/>
      <use x="75.195312" xlink:href="#DejaVuSans-65"/>
      <use x="136.71875" xlink:href="#DejaVuSans-69"/>
      <use x="164.501953" xlink:href="#DejaVuSans-67"/>
      <use x="227.978516" xlink:href="#DejaVuSans-68"/>
      <use x="291.357422" xlink:href="#DejaVuSans-74"/>
     </g>
    </g>
   </g>
   <g id="line2d_76">
    <path clip-path="url(#p026a5cad55)" d="M 72 514.166086 
L 76.509091 520.911732 
L 81.018182 531.292849 
L 85.527273 544.188128 
L 90.036364 558.323898 
L 94.545455 572.478579 
L 99.054545 585.648018 
L 103.563636 597.143243 
L 108.072727 606.613536 
L 112.581818 614.0069 
L 117.090909 619.491783 
L 121.6 623.366334 
L 126.109091 625.976479 
L 130.618182 627.6553 
L 135.127273 628.687206 
L 139.636364 629.29379 
L 144.145455 629.634994 
L 148.654545 629.818744 
L 153.163636 629.91352 
L 157.672727 629.960357 
L 162.181818 629.98254 
L 166.690909 629.992612 
L 171.2 629.996996 
L 175.709091 629.998827 
L 180.218182 629.99956 
L 184.727273 629.999841 
L 189.236364 629.999945 
L 193.745455 629.999982 
L 198.254545 629.999994 
L 202.763636 629.999998 
L 207.272727 629.999999 
L 211.781818 630 
L 216.290909 630 
L 220.8 630 
L 225.309091 630 
L 229.818182 630 
L 234.327273 630 
L 238.836364 630 
L 243.345455 630 
L 247.854545 630 
L 252.363636 630 
L 256.872727 630 
L 261.381818 630 
L 265.890909 630 
L 270.4 630 
L 274.909091 630 
L 279.418182 630 
L 283.927273 630 
L 288.436364 630 
L 292.945455 630 
L 297.454545 630 
L 301.963636 630 
L 306.472727 630 
L 310.981818 630 
L 315.490909 630 
L 320 630 
L 324.509091 630 
L 329.018182 630 
L 333.527273 630 
L 338.036364 630 
L 342.545455 630 
L 347.054545 630 
L 351.563636 630 
L 356.072727 630 
L 360.581818 630 
L 365.090909 630 
L 369.6 630 
L 374.109091 630 
L 378.618182 630 
L 383.127273 630 
L 387.636364 630 
L 392.145455 630 
L 396.654545 630 
L 401.163636 630 
L 405.672727 630 
L 410.181818 629.998827 
L 414.690909 629.996996 
L 419.2 629.992612 
L 423.709091 629.98254 
L 428.218182 629.960357 
L 432.727273 629.91352 
L 437.236364 629.818744 
L 441.745455 629.634994 
L 446.254545 629.29379 
L 450.763636 628.687206 
L 455.272727 627.6553 
L 459.781818 625.976479 
L 464.290909 623.366334 
L 468.8 619.491783 
L 473.309091 614.0069 
L 477.818182 606.613536 
L 482.327273 597.143243 
L 486.836364 585.648018 
L 491.345455 572.478579 
L 495.854545 558.323898 
L 500.363636 544.188128 
L 504.872727 531.292849 
L 509.381818 520.911732 
L 513.890909 514.166086 
L 518.4 511.826087 
" style="fill:none;stroke:#0000ff;stroke-linecap:square;stroke-width:1.5;"/>
   </g>
   <g id="patch_18">
    <path d="M 72 630 
L 72 511.826087 
" style="fill:none;stroke:#000000;stroke-linecap:square;stroke-linejoin:miter;stroke-width:0.8;"/>
   </g>
   <g id="patch_19">
    <path d="M 518.4 630 
L 518.4 511.826087 
" style="fill:none;stroke:#000000;stroke-linecap:square;stroke-linejoin:miter;stroke-width:0.8;"/>
   </g>
   <g id="patch_20">
    <path d="M 72 630 
L 518.4 630 
" style="fill:none;stroke:#000000;stroke-linecap:square;stroke-linejoin:miter;stroke-width:0.8;"/>
   </g>
   <g id="patch_21">
    <path d="M 72 511.826087 
L 518.4 511.826087 
" style="fill:none;stroke:#000000;stroke-linecap:square;stroke-linejoin:miter;stroke-width:0.8;"/>
   </g>
   <g id="text_33">
    <!-- Time step  75 -->
    <g transform="translate(254.185312 505.826087)scale(0.12 -0.12)">
     <use xlink:href="#DejaVuSans-54"/>
     <use x="57.958984" xlink:href="#DejaVuSans-69"/>
     <use x="85.742188" xlink:href="#DejaVuSans-6d"/>
     <use x="183.154297" xlink:href="#DejaVuSans-65"/>
     <use x="244.677734" xlink:href="#DejaVuSans-20"/>
     <use x="276.464844" xlink:href="#DejaVuSans-73"/>
     <use x="328.564453" xlink:href="#DejaVuSans-74"/>
     <use x="367.773438" xlink:href="#DejaVuSans-65"/>
     <use x="429.296875" xlink:href="#DejaVuSans-70"/>
     <use x="492.773438" xlink:href="#DejaVuSans-20"/>
     <use x="524.560547" xlink:href="#DejaVuSans-20"/>
     <use x="556.347656" xlink:href="#DejaVuSans-37"/>
     <use x="619.970703" xlink:href="#DejaVuSans-35"/>
    </g>
   </g>
  </g>
 </g>
 <defs>
  <clipPath id="pd2f8543bc5">
   <rect height="118.173913" width="446.4" x="72" y="86.4"/>
  </clipPath>
  <clipPath id="p79c13c41b5">
   <rect height="118.173913" width="446.4" x="72" y="228.208696"/>
  </clipPath>
  <clipPath id="p08c537a433">
   <rect height="118.173913" width="446.4" x="72" y="370.017391"/>
  </clipPath>
  <clipPath id="p026a5cad55">
   <rect height="118.173913" width="446.4" x="72" y="511.826087"/>
  </clipPath>
 </defs>
</svg>
